<svg
  xmlns="http://www.w3.org/2000/svg"
  width="100"
  height="100"
  viewBox="0 0 100 100"
>
  <!-- Bolsa de dinero con gradiente -->
  <defs>
    <linearGradient id="moneyGradient" x1="0%" y1="0%" x2="0%" y2="100%">
      <stop offset="0%" style="stop-color:#4CAF50;stop-opacity:1" />
      <stop offset="100%" style="stop-color:#8BC34A;stop-opacity:1" />
    </linearGradient>
  </defs>
  <path
    d="M50 15c-11.6 0-21 9.4-21 21v18h42V36c0-11.6-9.4-21-21-21zm-4 29h-4v-4h4v4zm4 4v13c0 1.7-1.3 3-3 3s-3-1.3-3-3V48h-8v11c0 1.7-1.3 3-3 3s-3-1.3-3-3V48h-8v11c0 1.7-1.3 3-3 3s-3-1.3-3-3V48H25v13c0 4.4 3.6 8 8 8h34c4.4 0 8-3.6 8-8V48h-4V48zm8-26h-4v-4h4v4z"
    fill="url(#moneyGradient)"
  />
  <!-- Alcancía con gradiente -->
  <defs>
    <linearGradient id="savingsGradient" x1="0%" y1="0%" x2="0%" y2="100%">
      <stop offset="0%" style="stop-color:#FDD835;stop-opacity:1" />
      <stop offset="100%" style="stop-color:#FBC02D;stop-opacity:1" />
    </linearGradient>
  </defs>
  <path
    d="M70 26H30c-4.4 0-8 3.6-8 8v24c0 4.4 3.6 8 8 8h40c4.4 0 8-3.6 8-8V34c0-4.4-3.6-8-8-8zM57 54H43V38h14v16zm4-24H39c-.6 0-1 .4-1 1v1h24v-1c0-.6-.4-1-1-1zm4 6H35c-.6 0-1 .4-1 1v1h30v-1c0-.6-.4-1-1-1z"
    fill="url(#savingsGradient)"
  />
</svg>
